<svg xmlns="http://www.w3.org/2000/svg" width="127" height="26" fill="none"><path fill="#fff" d="M21.353 14.997c0 5.799-4.734 10.503-10.57 10.503S.207 20.796.207 14.997 4.941 4.494 10.777 4.494s10.57 4.704 10.57 10.503M20.719.5H.841v2.94h19.878V.5ZM37.279 20.252c.908 0 2.05-.38 2.667-1.073.171-.187.36-.42.634-.42.36 0 .742.295.742.676 0 .147-.04.295-.171.442-.954 1.073-2.41 1.702-3.85 1.702-2.855 0-5.241-2.309-5.241-5.208 0-2.9 2.244-5.21 5.162-5.21 1.353 0 2.644.546 3.592 1.47.868.863 1.524 2.23 1.524 3.405 0 .527-.148.885-.868.885h-7.909c.235 1.827 1.776 3.342 3.724 3.342m-.063-7.774c-1.925 0-3.3 1.368-3.638 3.11h7.253c-.297-1.742-1.69-3.11-3.615-3.11Zm1.884-6.241c.383 0 .657.335.657.675s-.148.505-.445.692L36.08 9.528a.614.614 0 0 1-.36.102c-.383 0-.657-.335-.657-.67 0-.21.126-.42.383-.59l3.17-1.974a.954.954 0 0 1 .485-.148M53.6 18.487c.36 0 .76.295.76.67 0 .607-1.776 2.417-4.312 2.417-2.832 0-5.225-2.31-5.225-5.17s2.324-5.254 5.225-5.254c1.44 0 2.707.545 3.803 1.64.189.21.469.46.469.778 0 .38-.4.675-.76.675-.485 0-.485-.358-1.016-.817a3.875 3.875 0 0 0-2.518-.948c-2.136 0-3.74 1.85-3.74 3.927 0 2.076 1.627 3.847 3.808 3.847 1.182 0 2.37-.545 3.044-1.532.108-.17.274-.233.462-.233M61.891 21.574c-2.832 0-5.225-2.31-5.225-5.17s2.324-5.254 5.202-5.254 5.265 2.372 5.265 5.232c0 2.86-2.387 5.192-5.242 5.192m3.786-5.21c0-2.161-1.673-3.886-3.786-3.886s-3.763 1.827-3.763 3.927c0 2.099 1.65 3.847 3.786 3.847s3.763-1.85 3.763-3.887ZM69.607 12.642c-.446 0-.697-.232-.697-.67 0-.436.251-.652.697-.652h1.033V8.546c0-.46.252-.755.743-.755.49 0 .742.295.742.755v2.774h2.244c.423 0 .697.21.697.653 0 .442-.274.67-.697.67h-2.244v5.549c0 1.492.337 2.037 1.394 2.037.468 0 .508-.085.782-.085.297 0 .485.21.485.607 0 .8-.885.817-1.479.817-2.261 0-2.667-1.43-2.667-2.69v-6.241h-1.033v.005ZM86.777 21.449c-.485 0-.742-.295-.742-.777v-1.073c-.89 1.305-2.261 1.975-3.912 1.975-2.98 0-5.305-2.208-5.305-5.192 0-2.985 2.37-5.232 5.328-5.232 1.628 0 3.004.67 3.89 1.975V11.95c0-.465.25-.754.741-.754.492 0 .76.295.76.754v8.722c0 .482-.251.777-.76.777m-.822-5.044c0-2.162-1.565-3.927-3.849-3.927-2.284 0-3.826 1.68-3.826 3.927 0 2.246 1.605 3.847 3.826 3.847 2.222 0 3.85-1.742 3.85-3.847ZM92.505 21.448c-.485 0-.742-.295-.742-.777V6.384c0-.483.257-.755.742-.755s.742.272.742.755v6.746c.908-1.305 2.285-1.975 3.89-1.975 2.98 0 5.35 2.208 5.35 5.232s-2.324 5.192-5.328 5.192c-1.627 0-3.004-.675-3.912-1.975v1.073c0 .482-.25.777-.742.777m8.503-5.044c0-2.247-1.605-3.927-3.826-3.927s-3.849 1.765-3.849 3.927 1.565 3.847 3.849 3.847c2.284 0 3.826-1.64 3.826-3.847ZM108.769 20.228c.531 0 .719.25.719.607 0 .693-.673.738-1.205.738-1.416 0-2.387-.902-2.387-2.69v-12.5c0-.482.252-.754.743-.754s.742.272.742.755V18.19c0 1.493.32 2.037 1.394 2.037M116.358 20.252c.908 0 2.05-.38 2.667-1.072.171-.188.36-.42.634-.42.359 0 .742.295.742.675 0 .147-.04.295-.171.443-.954 1.072-2.41 1.702-3.849 1.702-2.855 0-5.242-2.31-5.242-5.21 0-2.899 2.244-5.208 5.162-5.208 1.353 0 2.644.545 3.592 1.47.868.862 1.525 2.23 1.525 3.404 0 .528-.149.885-.868.885h-7.909c.234 1.827 1.775 3.342 3.723 3.342m-.063-7.773c-1.924 0-3.301 1.367-3.638 3.11h7.253c-.297-1.743-1.691-3.11-3.615-3.11M124.267 9.857a1.895 1.895 0 0 1-1.902-1.89c0-1.05.857-1.889 1.908-1.889 1.05 0 1.895.851 1.895 1.89 0 1.038-.85 1.89-1.901 1.89m1.627-1.89c0-.897-.719-1.64-1.627-1.64a1.63 1.63 0 0 0-1.628 1.64c0 .902.72 1.64 1.628 1.64.908 0 1.627-.744 1.627-1.64m-.862.987c0 .08-.086.142-.166.142-.051 0-.091-.029-.12-.085l-.519-.88h-.406v.812c0 .09-.045.141-.137.141-.091 0-.137-.056-.137-.141v-1.85c0-.136.063-.204.206-.204h.491c.388 0 .902.05.902.607 0 .368-.245.556-.599.612l.451.755a.188.188 0 0 1 .028.09m-.16-1.446c0-.33-.291-.369-.645-.369h-.405v.75h.405c.309 0 .645-.035.645-.381Z"></path></svg>