<svg xmlns="http://www.w3.org/2000/svg" width="78" height="46" fill="none"><path fill="#fff" d="M71.689 10.896c2.165.296 3.25 1.477 3.25 2.617 0 .764-.553 1.32-1.391 1.32-.707 0-1.31-.556-1.31-1.32 0-.817.576-1.157.576-1.554 0-.316-.261-.871-1.125-1.063M70.438 10.908c-1.937.296-2.742 2.119-2.742 4.282 0 1.83 0 3.291 1.53 3.793-2.454-.526-4.156-1.764-4.156-3.82 0-2.825 2.3-4.112 5.365-4.255M70.438 29.186c-3.677-.29-6.084-1.865-6.084-5.222 0-2.659 1.813-3.941 4.744-4.532-1.613.62-2.12 2.214-2.12 4.532 0 2.462.941 4.688 3.46 5.222"></path><path fill="#fff" d="M74.246 19.656c-2.545.844-4.827 1.423-4.827 2.661 0 0-.148-.167-.184-.474-.238-2.095 2.02-2.847 4.512-3.664 2.754-.895 4.04-1.397 4.04-2.53 0 0 .13.205.157.447.196 1.856-1.547 2.847-3.594 3.53M71.994 29.188c1.937-.296 2.742-2.119 2.742-4.282 0-1.83 0-3.291-1.53-3.793 2.454.525 4.156 1.764 4.156 3.82 0 2.825-2.3 4.111-5.365 4.255M18.306 20.358c-1.307.49-3.865 1.16-6.6 1.16-3.467 0-6.084-.886-8.03-2.75-1.826-1.74-2.89-4.459-2.86-7.577C.816 4.686 5.438.5 12.223.5c2.524 0 4.5.52 5.444.976l-.82 3.025c-1.125-.489-2.495-.886-4.654-.886-4.379 0-7.453 2.6-7.453 7.394 0 4.795 2.858 7.454 7.117 7.454 1.34 0 2.341-.182 2.828-.427v-5.132h-3.618V9.941h7.24v10.417ZM28.248 14.036c-2.647-.06-5.169.519-5.169 2.78 0 1.469.942 2.14 2.13 2.14 1.491 0 2.584-.976 2.92-2.047.092-.274.122-.581.122-.823v-2.047l-.003-.003Zm.487 7.272-.244-1.65H28.4c-.912 1.16-2.465 1.984-4.378 1.984-2.98 0-4.655-2.17-4.655-4.428 0-3.76 3.315-5.652 8.79-5.622v-.245c0-.975-.395-2.596-3.01-2.596-1.46 0-2.979.46-3.986 1.101l-.73-2.443c1.096-.672 3.012-1.313 5.352-1.313 4.744 0 6.114 3.022 6.114 6.263v5.377c0 1.346.059 2.659.213 3.575h-3.377l.003-.003ZM47.29 16.846c0 1.772.059 3.24.121 4.46h-3.285l-.181-2.258h-.06c-.639 1.068-2.1 2.596-4.744 2.596-2.643 0-5.171-1.62-5.171-6.478v-8.74h3.742v8.095c0 2.474.79 4.064 2.769 4.064 1.491 0 2.465-1.068 2.86-2.017a3.42 3.42 0 0 0 .214-1.16V6.425h3.74v10.42h-.006ZM53.277.5h-3.77v20.807h3.77V.5ZM60.397 2.18v4.246h3.558v2.81h-3.558v6.571c0 1.802.487 2.751 1.916 2.751.638 0 1.125-.092 1.461-.182l.06 2.87c-.547.216-1.521.368-2.707.368-1.369 0-2.525-.46-3.223-1.224-.79-.856-1.155-2.199-1.155-4.153v-7h-2.13V6.426h2.13v-3.36l3.65-.886h-.002ZM19.607 36.76c-.122-2.66-.273-5.867-.244-8.645h-.092a109.903 109.903 0 0 1-2.433 7.88l-2.979 8.922h-2.89L8.23 36.118c-.79-2.629-1.52-5.44-2.067-8.003h-.06a473.164 473.164 0 0 1-.365 8.77l-.458 8.28H1.781l1.37-20.595h4.928l2.676 8.28c.73 2.415 1.37 4.858 1.886 7.15h.092a100.565 100.565 0 0 1 2.038-7.182L17.6 24.57h4.866l1.188 20.592h-3.651l-.395-8.402ZM26.965 30.285h3.77v14.881h-3.77v-14.88Zm3.983-4.156c0 1.13-.82 2.017-2.13 2.017s-2.067-.886-2.067-2.017c0-1.13.852-2.047 2.1-2.047 1.248 0 2.068.886 2.097 2.047ZM37.914 24.57h-3.77v20.592h3.77V24.57ZM45.121 24.57h-3.77v20.592h3.77V24.57ZM56.409 37.891c-2.647-.06-5.169.52-5.169 2.781 0 1.468.942 2.14 2.13 2.14 1.491 0 2.585-.976 2.92-2.047.092-.275.122-.582.122-.824v-2.047l-.003-.003Zm.487 7.272-.243-1.65h-.093c-.912 1.16-2.462 1.984-4.378 1.984-2.98 0-4.652-2.17-4.652-4.428 0-3.76 3.315-5.651 8.79-5.622v-.244c0-.976-.395-2.596-3.01-2.596-1.46 0-2.982.46-3.986 1.1l-.73-2.443c1.096-.671 3.012-1.313 5.352-1.313 4.747 0 6.114 3.023 6.114 6.263v5.377c0 1.346.06 2.659.213 3.575h-3.377v-.003ZM76.664 40.702c0 1.772.06 3.24.122 4.46h-3.285l-.181-2.258h-.06c-.639 1.068-2.1 2.596-4.747 2.596-2.646 0-5.168-1.62-5.168-6.478v-8.737h3.743v8.095c0 2.474.79 4.064 2.768 4.064 1.491 0 2.466-1.068 2.858-2.017.121-.334.213-.734.213-1.16v-8.982h3.743v10.417h-.006Z"></path></svg>