<svg xmlns="http://www.w3.org/2000/svg" width="65" height="65" fill="none"><path fill="#fff" d="M24.7 18.241c-.14-.13-.31-.23-.48-.31-.47-.22-.97-.32-1.48-.4-.16-.02-.32-.03-.49-.05v-.26c0-.04.02-.05.05-.06l.33-.03c.4-.04.8-.12 1.18-.24.3-.09.57-.23.82-.42.29-.23.46-.53.46-.92-.01-.49-.23-.86-.6-1.15-.06-.05-.13-.08-.2-.11-.27-.1-.53-.07-.8.02-.29.11-.56.28-.79.5-.39.36-.71.79-1.01 1.23a.21.21 0 0 1-.04.06c-.05-.03-.09-.06-.13-.08l-.14-.08.03-.06c.26-.57.49-1.15.56-1.79.04-.28.02-.57-.04-.85-.09-.37-.29-.63-.64-.75a1.56 1.56 0 0 0-.64-.07c-.23.01-.45.09-.63.24s-.31.35-.37.58c-.1.36-.08.72-.02 1.07.08.41.19.8.35 1.17.07.15.13.3.2.46l-.26.15h-.01c-.01-.02-.02-.03-.03-.05-.33-.49-.68-.95-1.13-1.33-.21-.18-.45-.32-.71-.41-.21-.07-.42-.11-.63-.04-.49.14-.78.49-.9.99-.11.5.04.91.43 1.22.12.1.26.18.4.25.47.23.98.33 1.49.4.15.01.29.03.44.04.01 0 .04.02.04.03.01.1 0 .19 0 .29-.13.01-.26.03-.39.04-.4.04-.79.13-1.18.25-.29.09-.57.23-.82.42-.28.23-.45.53-.44.91 0 .48.22.85.59 1.14.07.05.14.09.22.12.29.11.57.07.86-.05.28-.12.54-.3.77-.53.37-.34.67-.74.95-1.16.02-.02.03-.04.04-.06.08.05.16.09.24.13.01.01.02.02.03.02v.01c-.01.02-.01.03-.02.05-.28.61-.51 1.23-.57 1.91-.03.25-.01.51.06.75.11.38.34.65.72.77.18.05.36.06.54.05.5-.04.84-.33 1-.81.11-.36.09-.73.03-1.1-.08-.38-.19-.75-.33-1.11a8.11 8.11 0 0 1-.22-.52l.26-.14c.06.09.12.18.18.26.29.4.6.78.97 1.1.19.16.39.29.61.38.28.11.56.17.84.05.2-.07.37-.19.5-.35.14-.16.24-.35.29-.56.13-.47.02-.88-.34-1.21Zm0 0c-.14-.13-.31-.23-.48-.31-.47-.22-.97-.32-1.48-.4-.16-.02-.32-.03-.49-.05v-.26c0-.04.02-.05.05-.06l.33-.03c.4-.04.8-.12 1.18-.24.3-.09.57-.23.82-.42.29-.23.46-.53.46-.92-.01-.49-.23-.86-.6-1.15-.06-.05-.13-.08-.2-.11-.27-.1-.53-.07-.8.02-.29.11-.56.28-.79.5-.39.36-.71.79-1.01 1.23a.21.21 0 0 1-.04.06c-.05-.03-.09-.06-.13-.08l-.14-.08.03-.06c.26-.57.49-1.15.56-1.79.04-.28.02-.57-.04-.85-.09-.37-.29-.63-.64-.75a1.56 1.56 0 0 0-.64-.07c-.23.01-.45.09-.63.24s-.31.35-.37.58c-.1.36-.08.72-.02 1.07.08.41.19.8.35 1.17.07.15.13.3.2.46l-.26.15h-.01c-.01-.02-.02-.03-.03-.05-.33-.49-.68-.95-1.13-1.33-.21-.18-.45-.32-.71-.41-.21-.07-.42-.11-.63-.04-.49.14-.78.49-.9.99-.11.5.04.91.43 1.22.12.1.26.18.4.25.47.23.98.33 1.49.4.15.01.29.03.44.04.01 0 .04.02.04.03.01.1 0 .19 0 .29-.13.01-.26.03-.39.04-.4.04-.79.13-1.18.25-.29.09-.57.23-.82.42-.28.23-.45.53-.44.91 0 .48.22.85.59 1.14.07.05.14.09.22.12.29.11.57.07.86-.05.28-.12.54-.3.77-.53.37-.34.67-.74.95-1.16.02-.02.03-.04.04-.06.08.05.16.09.24.13.01.01.02.02.03.02v.01c-.01.02-.01.03-.02.05-.28.61-.51 1.23-.57 1.91-.03.25-.01.51.06.75.11.38.34.65.72.77.18.05.36.06.54.05.5-.04.84-.33 1-.81.11-.36.09-.73.03-1.1-.08-.38-.19-.75-.33-1.11a8.11 8.11 0 0 1-.22-.52l.26-.14c.06.09.12.18.18.26.29.4.6.78.97 1.1.19.16.39.29.61.38.28.11.56.17.84.05.2-.07.37-.19.5-.35.14-.16.24-.35.29-.56.13-.47.02-.88-.34-1.21Zm0 0c-.14-.13-.31-.23-.48-.31-.47-.22-.97-.32-1.48-.4-.16-.02-.32-.03-.49-.05v-.26c0-.04.02-.05.05-.06l.33-.03c.4-.04.8-.12 1.18-.24.3-.09.57-.23.82-.42.29-.23.46-.53.46-.92-.01-.49-.23-.86-.6-1.15-.06-.05-.13-.08-.2-.11-.27-.1-.53-.07-.8.02-.29.11-.56.28-.79.5-.39.36-.71.79-1.01 1.23a.21.21 0 0 1-.04.06c-.05-.03-.09-.06-.13-.08l-.14-.08.03-.06c.26-.57.49-1.15.56-1.79.04-.28.02-.57-.04-.85-.09-.37-.29-.63-.64-.75a1.56 1.56 0 0 0-.64-.07c-.23.01-.45.09-.63.24s-.31.35-.37.58c-.1.36-.08.72-.02 1.07.08.41.19.8.35 1.17.07.15.13.3.2.46l-.26.15h-.01c-.01-.02-.02-.03-.03-.05-.33-.49-.68-.95-1.13-1.33-.21-.18-.45-.32-.71-.41-.21-.07-.42-.11-.63-.04-.49.14-.78.49-.9.99-.11.5.04.91.43 1.22.12.1.26.18.4.25.47.23.98.33 1.49.4.15.01.29.03.44.04.01 0 .04.02.04.03.01.1 0 .19 0 .29-.13.01-.26.03-.39.04-.4.04-.79.13-1.18.25-.29.09-.57.23-.82.42-.28.23-.45.53-.44.91 0 .48.22.85.59 1.14.07.05.14.09.22.12.29.11.57.07.86-.05.28-.12.54-.3.77-.53.37-.34.67-.74.95-1.16.02-.02.03-.04.04-.06.08.05.16.09.24.13.01.01.02.02.03.02v.01c-.01.02-.01.03-.02.05-.28.61-.51 1.23-.57 1.91-.03.25-.01.51.06.75.11.38.34.65.72.77.18.05.36.06.54.05.5-.04.84-.33 1-.81.11-.36.09-.73.03-1.1-.08-.38-.19-.75-.33-1.11a8.11 8.11 0 0 1-.22-.52l.26-.14c.06.09.12.18.18.26.29.4.6.78.97 1.1.19.16.39.29.61.38.28.11.56.17.84.05.2-.07.37-.19.5-.35.14-.16.24-.35.29-.56.13-.47.02-.88-.34-1.21Zm11.65 0c-.15-.13-.31-.23-.48-.31-.47-.22-.98-.32-1.49-.4-.16-.02-.32-.03-.48-.05v-.26c0-.02 0-.04.01-.04.01-.02.02-.02.04-.02l.32-.03c.4-.04.8-.12 1.18-.24.3-.09.58-.23.82-.42.15-.12.26-.25.34-.4.04-.08.07-.16.09-.24a1.36 1.36 0 0 0-.13-.93c-.06-.1-.12-.18-.19-.27-.07-.08-.15-.15-.24-.23-.07-.05-.14-.08-.21-.11-.26-.1-.53-.07-.79.02-.3.11-.57.28-.79.5-.4.36-.72.79-1.02 1.23l-.04.06a.913.913 0 0 0-.13-.08l-.13-.08c.01-.03.02-.04.03-.06.13-.28.25-.57.35-.87.1-.29.17-.6.2-.92.04-.28.03-.57-.04-.85-.04-.18-.11-.34-.22-.47a.846.846 0 0 0-.42-.28c-.21-.07-.42-.09-.64-.07-.23.01-.45.09-.63.24s-.31.35-.37.58c-.1.36-.08.72-.02 1.07.08.4.2.8.36 1.17.03.08.06.15.09.23.03.07.07.15.11.23h-.01l-.26.15h-.01c-.01-.02-.02-.03-.03-.05-.33-.49-.68-.95-1.13-1.33-.2-.18-.44-.32-.7-.41-.21-.07-.43-.11-.64-.04-.24.08-.44.2-.58.37-.15.17-.26.38-.31.63-.05.21-.05.4-.01.57.06.25.2.47.43.64.12.1.26.18.4.25.47.23.98.33 1.49.4.15.02.29.03.44.04.01 0 .04.02.04.03.01.1 0 .19 0 .29-.13.01-.26.03-.39.04-.4.05-.79.13-1.18.25-.29.09-.57.23-.82.42-.28.23-.44.53-.44.91 0 .48.22.85.58 1.14.07.05.15.09.23.12.29.11.57.07.85-.05.29-.12.55-.3.78-.52.37-.35.67-.75.95-1.17.02-.02.03-.03.04-.05l.24.12c.01.01.02.02.03.02v.02c-.01.01-.02.03-.02.04-.28.61-.51 1.23-.57 1.91-.03.25-.01.51.06.75.12.38.35.65.73.77.17.05.35.06.54.05.49-.04.84-.32.99-.81.12-.36.09-.73.03-1.09-.07-.39-.18-.76-.33-1.12-.07-.17-.14-.34-.22-.52.09-.05.18-.09.27-.14.06.09.12.18.18.26.29.4.59.78.97 1.1.18.16.39.29.61.38.27.11.56.17.84.05.19-.07.36-.19.5-.35.14-.16.24-.35.28-.56.13-.47.03-.88-.33-1.21Zm11.15-.3c-.47-.23-.98-.33-1.48-.4-.16-.03-.33-.04-.49-.06v-.26c0-.04.02-.05.05-.05.11-.01.22-.02.33-.04.4-.04.8-.12 1.18-.24.29-.08.57-.22.82-.41.29-.24.46-.54.46-.93-.01-.49-.23-.86-.6-1.15-.06-.04-.13-.08-.21-.11-.26-.1-.52-.07-.79.02-.29.11-.56.28-.79.5-.39.36-.71.79-1.01 1.23-.01.02-.03.04-.04.06l-.13-.08-.14-.08c.02-.02.02-.04.03-.06.27-.57.49-1.15.56-1.78.04-.29.02-.58-.04-.86-.09-.36-.29-.63-.64-.75-.21-.06-.43-.09-.64-.07-.23.01-.45.1-.63.24-.18.15-.31.36-.37.59-.1.35-.08.71-.02 1.07.08.4.19.79.35 1.16.07.16.13.31.2.46l-.26.16-.01-.01c-.01-.01-.02-.03-.03-.05-.33-.48-.68-.95-1.13-1.33-.21-.18-.45-.32-.71-.41-.21-.06-.42-.11-.63-.04-.49.15-.78.5-.9 1-.11.5.04.91.43 1.22.12.09.26.18.4.24.47.23.98.33 1.49.4.15.02.29.03.44.05.01 0 .04.01.04.02v.29c-.14.02-.26.03-.39.05-.4.04-.79.12-1.18.25-.29.08-.57.22-.82.42-.28.23-.44.52-.44.9 0 .49.22.86.58 1.14.07.06.15.09.23.12.29.11.57.07.85-.04.29-.13.55-.31.78-.53.37-.35.67-.75.95-1.17.01-.01.03-.03.04-.05l.24.13s.01.01.03.01v.02l-.02.04c-.28.61-.52 1.23-.58 1.91-.03.26 0 .51.07.75.11.38.34.65.72.77.18.05.36.07.54.05.5-.03.84-.32 1-.81.11-.36.08-.72.02-1.09-.07-.38-.18-.76-.33-1.12-.07-.17-.14-.34-.22-.52l.27-.14c.06.09.12.18.18.26.29.41.59.79.97 1.1.18.16.39.29.61.39.28.11.56.16.84.05a1.362 1.362 0 0 0 .79-.91c.12-.47.02-.88-.34-1.21-.14-.13-.31-.24-.48-.31Zm0 0c-.47-.23-.98-.33-1.48-.4-.16-.03-.33-.04-.49-.06v-.26c0-.04.02-.05.05-.05.11-.01.22-.02.33-.04.4-.04.8-.12 1.18-.24.29-.08.57-.22.82-.41.29-.24.46-.54.46-.93-.01-.49-.23-.86-.6-1.15-.06-.04-.13-.08-.21-.11-.26-.1-.52-.07-.79.02-.29.11-.56.28-.79.5-.39.36-.71.79-1.01 1.23-.01.02-.03.04-.04.06l-.13-.08-.14-.08c.02-.02.02-.04.03-.06.27-.57.49-1.15.56-1.78.04-.29.02-.58-.04-.86-.09-.36-.29-.63-.64-.75-.21-.06-.43-.09-.64-.07-.23.01-.45.1-.63.24-.18.15-.31.36-.37.59-.1.35-.08.71-.02 1.07.08.4.19.79.35 1.16.07.16.13.31.2.46l-.26.16-.01-.01c-.01-.01-.02-.03-.03-.05-.33-.48-.68-.95-1.13-1.33-.21-.18-.45-.32-.71-.41-.21-.06-.42-.11-.63-.04-.49.15-.78.5-.9 1-.11.5.04.91.43 1.22.12.09.26.18.4.24.47.23.98.33 1.49.4.15.02.29.03.44.05.01 0 .04.01.04.02v.29c-.14.02-.26.03-.39.05-.4.04-.79.12-1.18.25-.29.08-.57.22-.82.42-.28.23-.44.52-.44.9 0 .49.22.86.58 1.14.07.06.15.09.23.12.29.11.57.07.85-.04.29-.13.55-.31.78-.53.37-.35.67-.75.95-1.17.01-.01.03-.03.04-.05l.24.13s.01.01.03.01v.02l-.02.04c-.28.61-.52 1.23-.58 1.91-.03.26 0 .51.07.75.11.38.34.65.72.77.18.05.36.07.54.05.5-.03.84-.32 1-.81.11-.36.08-.72.02-1.09-.07-.38-.18-.76-.33-1.12-.07-.17-.14-.34-.22-.52l.27-.14c.06.09.12.18.18.26.29.41.59.79.97 1.1.18.16.39.29.61.39.28.11.56.16.84.05a1.362 1.362 0 0 0 .79-.91c.12-.47.02-.88-.34-1.21-.14-.13-.31-.24-.48-.31Zm-22.8.3c-.14-.13-.31-.23-.48-.31-.47-.22-.97-.32-1.48-.4-.16-.02-.32-.03-.49-.05v-.26c0-.04.02-.05.05-.06l.33-.03c.4-.04.8-.12 1.18-.24.3-.09.57-.23.82-.42.29-.23.46-.53.46-.92-.01-.49-.23-.86-.6-1.15-.06-.05-.13-.08-.2-.11-.27-.1-.53-.07-.8.02-.29.11-.56.28-.79.5-.39.36-.71.79-1.01 1.23a.21.21 0 0 1-.04.06c-.05-.03-.09-.06-.13-.08l-.14-.08.03-.06c.26-.57.49-1.15.56-1.79.04-.28.02-.57-.04-.85-.09-.37-.29-.63-.64-.75a1.56 1.56 0 0 0-.64-.07c-.23.01-.45.09-.63.24s-.31.35-.37.58c-.1.36-.08.72-.02 1.07.08.41.19.8.35 1.17.07.15.13.3.2.46l-.26.15h-.01c-.01-.02-.02-.03-.03-.05-.33-.49-.68-.95-1.13-1.33-.21-.18-.45-.32-.71-.41-.21-.07-.42-.11-.63-.04-.49.14-.78.49-.9.99-.11.5.04.91.43 1.22.12.1.26.18.4.25.47.23.98.33 1.49.4.15.01.29.03.44.04.01 0 .04.02.04.03.01.1 0 .19 0 .29-.13.01-.26.03-.39.04-.4.04-.79.13-1.18.25-.29.09-.57.23-.82.42-.28.23-.45.53-.44.91 0 .48.22.85.59 1.14.07.05.14.09.22.12.29.11.57.07.86-.05.28-.12.54-.3.77-.53.37-.34.67-.74.95-1.16.02-.02.03-.04.04-.06.08.05.16.09.24.13.01.01.02.02.03.02v.01c-.01.02-.01.03-.02.05-.28.61-.51 1.23-.57 1.91-.03.25-.01.51.06.75.11.38.34.65.72.77.18.05.36.06.54.05.5-.04.84-.33 1-.81.11-.36.09-.73.03-1.1-.08-.38-.19-.75-.33-1.11a8.11 8.11 0 0 1-.22-.52l.26-.14c.06.09.12.18.18.26.29.4.6.78.97 1.1.19.16.39.29.61.38.28.11.56.17.84.05.2-.07.37-.19.5-.35.14-.16.24-.35.29-.56.13-.47.02-.88-.34-1.21Zm11.65 0c-.15-.13-.31-.23-.48-.31-.47-.22-.98-.32-1.49-.4-.16-.02-.32-.03-.48-.05v-.26c0-.02 0-.04.01-.04.01-.02.02-.02.04-.02l.32-.03c.4-.04.8-.12 1.18-.24.3-.09.58-.23.82-.42.15-.12.26-.25.34-.4.04-.08.07-.16.09-.24a1.36 1.36 0 0 0-.13-.93c-.06-.1-.12-.18-.19-.27-.07-.08-.15-.15-.24-.23-.07-.05-.14-.08-.21-.11-.26-.1-.53-.07-.79.02-.3.11-.57.28-.79.5-.4.36-.72.79-1.02 1.23l-.04.06a.913.913 0 0 0-.13-.08l-.13-.08c.01-.03.02-.04.03-.06.13-.28.25-.57.35-.87.1-.29.17-.6.2-.92.04-.28.03-.57-.04-.85-.04-.18-.11-.34-.22-.47a.846.846 0 0 0-.42-.28c-.21-.07-.42-.09-.64-.07-.23.01-.45.09-.63.24s-.31.35-.37.58c-.1.36-.08.72-.02 1.07.08.4.19.8.35 1.17.03.08.07.15.1.23.03.07.07.15.1.23l-.26.15h-.01c-.01-.02-.02-.03-.03-.05-.33-.49-.68-.95-1.13-1.33-.2-.18-.44-.32-.7-.41-.21-.07-.43-.11-.64-.04-.24.08-.44.2-.58.37-.15.16-.26.38-.32.63-.05.2-.05.4 0 .57.06.25.2.47.43.64.12.1.26.18.4.25.47.23.98.33 1.49.4.15.02.29.03.44.04.01 0 .04.02.04.03.01.1 0 .19 0 .29-.13.01-.26.03-.39.04-.4.05-.79.13-1.18.25-.29.09-.57.23-.82.42-.28.23-.44.53-.44.91 0 .48.22.85.58 1.14.07.05.15.09.23.12.29.11.57.07.85-.05.29-.12.55-.3.78-.52.37-.35.67-.75.95-1.17.02-.02.03-.03.04-.05l.24.12c.01.01.02.02.03.02v.02c-.01.01-.02.03-.02.04-.28.61-.51 1.23-.57 1.91-.03.25-.01.51.06.75.12.38.35.65.73.77.17.05.35.06.54.05.49-.04.84-.32.99-.81.12-.36.09-.73.03-1.09-.07-.39-.18-.76-.33-1.12-.07-.17-.14-.34-.22-.52.09-.05.18-.09.27-.14.06.09.12.18.18.26.29.4.59.78.97 1.1.18.16.39.29.61.38.27.11.56.17.84.05.19-.07.36-.19.5-.35.14-.16.24-.35.28-.56.13-.47.03-.88-.33-1.21Zm11.15-.3c-.47-.23-.98-.33-1.48-.4-.16-.03-.33-.04-.49-.06v-.26c0-.04.02-.05.05-.05.11-.01.22-.02.33-.04.4-.04.8-.12 1.18-.24.29-.08.57-.22.82-.41.29-.24.46-.54.46-.93-.01-.49-.23-.86-.6-1.15-.06-.04-.13-.08-.21-.11-.26-.1-.52-.07-.79.02-.29.11-.56.28-.79.5-.39.36-.71.79-1.01 1.23-.01.02-.03.04-.04.06l-.13-.08-.14-.08c.02-.02.02-.04.03-.06.27-.57.49-1.15.56-1.78.04-.29.02-.58-.04-.86-.09-.36-.29-.63-.64-.75-.21-.06-.43-.09-.64-.07-.23.01-.45.1-.63.24-.18.15-.31.36-.37.59-.1.35-.08.71-.02 1.07.08.4.19.79.35 1.16.07.16.13.31.2.46l-.26.16-.01-.01c-.01-.01-.02-.03-.03-.05-.33-.48-.68-.95-1.13-1.33-.21-.18-.45-.32-.71-.41-.21-.06-.42-.11-.63-.04-.49.15-.78.5-.9 1-.11.5.04.91.43 1.22.12.09.26.18.4.24.47.23.98.33 1.49.4.15.02.29.03.44.05.01 0 .04.01.04.02v.29c-.14.02-.26.03-.39.05-.4.04-.79.12-1.18.25-.29.08-.57.22-.82.42-.28.23-.44.52-.44.9 0 .49.22.86.58 1.14.07.06.15.09.23.12.29.11.57.07.85-.04.29-.13.55-.31.78-.53.37-.35.67-.75.95-1.17.01-.01.03-.03.04-.05l.24.13s.01.01.03.01v.02l-.02.04c-.28.61-.52 1.23-.58 1.91-.03.26 0 .51.07.75.11.38.34.65.72.77.18.05.36.07.54.05.5-.03.84-.32 1-.81.11-.36.08-.72.02-1.09-.07-.38-.18-.76-.33-1.12-.07-.17-.14-.34-.22-.52l.27-.14c.06.09.12.18.18.26.29.41.59.79.97 1.1.18.16.39.29.61.39.28.11.56.16.84.05a1.362 1.362 0 0 0 .79-.91c.12-.47.02-.88-.34-1.21-.14-.13-.31-.24-.48-.31Zm-11.63-.01c-.47-.22-.98-.32-1.49-.4-.16-.02-.32-.03-.48-.05v-.26c0-.02 0-.04.01-.04.01-.02.02-.02.04-.02l.32-.03c.4-.04.8-.12 1.18-.24.3-.09.58-.23.82-.42.15-.12.26-.25.34-.4.04-.08.07-.16.09-.24a1.36 1.36 0 0 0-.13-.93c-.06-.1-.12-.18-.19-.27-.07-.08-.15-.15-.24-.23-.07-.05-.14-.08-.21-.11-.26-.1-.53-.07-.79.02-.3.11-.57.28-.79.5-.4.36-.72.79-1.02 1.23l-.04.06a.913.913 0 0 0-.13-.08l-.13-.08c.01-.03.02-.04.03-.06.13-.28.25-.57.35-.87.1-.29.17-.6.2-.92.04-.28.03-.57-.04-.85-.04-.18-.11-.34-.22-.47a.846.846 0 0 0-.42-.28c-.21-.07-.42-.09-.64-.07-.23.01-.45.09-.63.24s-.31.35-.37.58c-.1.36-.08.72-.02 1.07.08.4.19.8.35 1.17.03.08.07.15.1.23.03.07.07.15.1.23l-.26.15h-.01c-.01-.02-.02-.03-.03-.05-.33-.49-.68-.95-1.13-1.33-.2-.18-.44-.32-.7-.41-.21-.07-.43-.11-.64-.04-.24.08-.44.2-.58.37-.15.16-.26.38-.32.63-.05.2-.05.4 0 .57.06.25.2.47.43.64.12.1.26.18.4.25.47.23.98.33 1.49.4.15.02.29.03.44.04.01 0 .04.02.04.03.01.1 0 .19 0 .29-.13.01-.26.03-.39.04-.4.05-.79.13-1.18.25-.29.09-.57.23-.82.42-.28.23-.44.53-.44.91 0 .48.22.85.58 1.14.07.05.15.09.23.12.29.11.57.07.85-.05.29-.12.55-.3.78-.52.37-.35.67-.75.95-1.17.02-.02.03-.03.04-.05l.24.12c.01.01.02.02.03.02v.02c-.01.01-.02.03-.02.04-.28.61-.51 1.23-.57 1.91-.03.25-.01.51.06.75.12.38.35.65.73.77.17.05.35.06.54.05.49-.04.84-.32.99-.81.12-.36.09-.73.03-1.09-.07-.39-.18-.76-.33-1.12-.07-.17-.14-.34-.22-.52.09-.05.18-.09.27-.14.06.09.12.18.18.26.29.4.59.78.97 1.1.18.16.39.29.61.38.27.11.56.17.84.05.19-.07.36-.19.5-.35.14-.16.24-.35.28-.56.13-.47.03-.88-.33-1.21-.15-.13-.31-.23-.48-.31Zm-11.65 0c-.47-.22-.97-.32-1.48-.4-.16-.02-.32-.03-.49-.05v-.26c0-.04.02-.05.05-.06l.33-.03c.4-.04.8-.12 1.18-.24.3-.09.57-.23.82-.42.29-.23.46-.53.46-.92-.01-.49-.23-.86-.6-1.15-.06-.05-.13-.08-.2-.11-.27-.1-.53-.07-.8.02-.29.11-.56.28-.79.5-.39.36-.71.79-1.01 1.23a.21.21 0 0 1-.04.06c-.05-.03-.09-.06-.13-.08l-.14-.08.03-.06c.26-.57.49-1.15.56-1.79.04-.28.02-.57-.04-.85-.09-.37-.29-.63-.64-.75a1.56 1.56 0 0 0-.64-.07c-.23.01-.45.09-.63.24s-.31.35-.37.58c-.1.36-.08.72-.02 1.07.08.41.19.8.35 1.17.07.15.13.3.2.46l-.26.15h-.01c-.01-.02-.02-.03-.03-.05-.33-.49-.68-.95-1.13-1.33-.21-.18-.45-.32-.71-.41-.21-.07-.42-.11-.63-.04-.49.14-.78.49-.9.99-.11.5.04.91.43 1.22.12.1.26.18.4.25.47.23.98.33 1.49.4.15.01.29.03.44.04.01 0 .04.02.04.03.01.1 0 .19 0 .29-.13.01-.26.03-.39.04-.4.04-.79.13-1.18.25-.29.09-.57.23-.82.42-.28.23-.45.53-.44.91 0 .48.22.85.59 1.14.07.05.14.09.22.12.29.11.57.07.86-.05.28-.12.54-.3.77-.53.37-.34.67-.74.95-1.16.02-.02.03-.04.04-.06.08.05.16.09.24.13.01.01.02.02.03.02v.01c-.01.02-.01.03-.02.05-.28.61-.51 1.23-.57 1.91-.03.25-.01.51.06.75.11.38.34.65.72.77.18.05.36.06.54.05.5-.04.84-.33 1-.81.11-.36.09-.73.03-1.1-.08-.38-.19-.75-.33-1.11a8.11 8.11 0 0 1-.22-.52l.26-.14c.06.09.12.18.18.26.29.4.6.78.97 1.1.19.16.39.29.61.38.28.11.56.17.84.05.2-.07.37-.19.5-.35.14-.16.24-.35.29-.56.13-.47.02-.88-.34-1.21-.14-.13-.31-.23-.48-.31Zm12.13.31c-.15-.13-.31-.23-.48-.31-.47-.22-.98-.32-1.49-.4-.16-.02-.32-.03-.48-.05h-.01v-.26c0-.02.01-.04.02-.04.01-.02.02-.02.04-.02l.32-.03c.4-.04.8-.12 1.18-.24.3-.09.58-.23.82-.42.15-.12.26-.25.34-.4.04-.08.07-.16.09-.24a1.36 1.36 0 0 0-.13-.93c-.06-.1-.12-.18-.19-.27-.07-.08-.15-.15-.24-.23-.07-.05-.14-.08-.21-.11-.26-.1-.53-.07-.79.02-.3.11-.57.28-.79.5-.4.36-.72.79-1.02 1.23l-.04.06a.913.913 0 0 0-.13-.08l-.13-.08c.01-.03.01-.04.02-.06.14-.28.26-.57.36-.87.09-.29.16-.6.2-.92.04-.28.03-.57-.04-.85-.04-.18-.12-.34-.22-.47a.846.846 0 0 0-.42-.28c-.21-.07-.42-.09-.64-.07-.23.01-.45.09-.63.24s-.31.35-.37.58c-.1.36-.08.72-.02 1.07.08.4.19.8.35 1.17.03.08.07.15.1.23.03.07.07.15.1.23l-.26.15h-.01c-.01-.02-.02-.03-.03-.05-.33-.49-.68-.95-1.13-1.33-.2-.18-.44-.32-.7-.41-.21-.07-.43-.11-.64-.04-.24.08-.44.2-.58.37-.15.16-.26.38-.32.63-.05.2-.05.4 0 .57.06.25.2.47.43.64.12.1.26.18.4.25.47.23.98.33 1.49.4.15.02.29.03.44.04.01 0 .04.02.04.03.01.1 0 .19 0 .29-.13.01-.26.03-.39.04-.4.05-.79.13-1.18.25-.29.09-.57.23-.82.42-.28.23-.44.53-.44.91 0 .48.22.85.58 1.14.07.05.15.09.23.12.29.11.57.07.85-.05.29-.12.55-.3.78-.52.37-.35.67-.75.95-1.17.02-.02.03-.03.04-.05l.24.12c.01.01.02.02.03.02v.02c-.01.01-.02.03-.02.04-.28.61-.51 1.23-.57 1.91-.03.25-.01.51.06.75.12.38.35.65.73.77.17.05.35.06.54.05.49-.04.84-.32.99-.81.12-.36.09-.73.03-1.09-.07-.39-.18-.76-.33-1.12-.07-.17-.14-.34-.22-.52.09-.05.18-.09.27-.14.06.09.12.18.18.26.29.4.59.78.97 1.1.18.16.39.29.61.38.27.11.56.17.84.05.19-.07.36-.19.5-.35.14-.16.24-.35.28-.56.13-.47.03-.88-.33-1.21Zm-11.65 0c-.14-.13-.31-.23-.48-.31-.47-.22-.97-.32-1.48-.4-.16-.02-.32-.03-.49-.05v-.26c0-.04.02-.05.05-.06l.33-.03c.4-.04.8-.12 1.18-.24.3-.09.57-.23.82-.42.29-.23.46-.53.46-.92-.01-.49-.23-.86-.6-1.15-.06-.05-.13-.08-.2-.11-.27-.1-.53-.07-.8.02-.29.11-.56.28-.79.5-.39.36-.71.79-1.01 1.23a.21.21 0 0 1-.04.06c-.05-.03-.09-.06-.13-.08l-.14-.08.03-.06c.26-.57.49-1.15.56-1.79.04-.28.02-.57-.04-.85-.09-.37-.29-.63-.64-.75a1.56 1.56 0 0 0-.64-.07c-.23.01-.45.09-.63.24s-.31.35-.37.58c-.1.36-.08.72-.02 1.07.08.41.19.8.35 1.17.07.15.13.3.2.46l-.26.15h-.01c-.01-.02-.02-.03-.03-.05-.33-.49-.68-.95-1.13-1.33-.21-.18-.45-.32-.71-.41-.21-.07-.42-.11-.63-.04-.49.14-.78.49-.9.99-.11.5.04.91.43 1.22.12.1.26.18.4.25.47.23.98.33 1.49.4.15.01.29.03.44.04.01 0 .04.02.04.03.01.1 0 .19 0 .29-.13.01-.26.03-.39.04-.4.04-.79.13-1.18.25-.29.09-.57.23-.82.42-.28.23-.45.53-.44.91 0 .48.22.85.59 1.14.07.05.14.09.22.12.29.11.57.07.86-.05.28-.12.54-.3.77-.53.37-.34.67-.74.95-1.16.02-.02.03-.04.04-.06.08.05.16.09.24.13.01.01.02.02.03.02v.01c-.01.02-.01.03-.02.05-.28.61-.51 1.23-.57 1.91-.03.25-.01.51.06.75.11.38.34.65.72.77.18.05.36.06.54.05.5-.04.84-.33 1-.81.11-.36.09-.73.03-1.1-.08-.38-.19-.75-.33-1.11a8.11 8.11 0 0 1-.22-.52l.26-.14c.06.09.12.18.18.26.29.4.6.78.97 1.1.19.16.39.29.61.38.28.11.56.17.84.05.2-.07.37-.19.5-.35.14-.16.24-.35.29-.56.13-.47.02-.88-.34-1.21Zm11.65 0c-.15-.13-.31-.23-.48-.31-.47-.22-.98-.32-1.49-.4-.16-.02-.32-.03-.48-.05h-.01v-.26c0-.02.01-.04.02-.04.01-.02.02-.02.04-.02l.32-.03c.4-.04.8-.12 1.18-.24.3-.09.58-.23.82-.42.15-.12.26-.25.34-.4.04-.08.07-.16.09-.24a1.36 1.36 0 0 0-.13-.93c-.06-.1-.12-.18-.19-.27-.07-.08-.15-.15-.24-.23-.07-.05-.14-.08-.21-.11-.26-.1-.53-.07-.79.02-.3.11-.57.28-.79.5-.4.36-.72.79-1.02 1.23l-.04.06a.913.913 0 0 0-.13-.08l-.13-.08c.01-.03.01-.04.02-.06.14-.28.26-.57.36-.87.09-.29.16-.6.2-.92.04-.28.03-.57-.04-.85-.04-.18-.12-.34-.22-.47a.846.846 0 0 0-.42-.28c-.21-.07-.42-.09-.64-.07-.23.01-.45.09-.63.24s-.31.35-.37.58c-.1.36-.08.72-.02 1.07.08.4.19.8.35 1.17.03.08.07.15.1.23.03.07.07.15.1.23l-.26.15h-.01c-.01-.02-.02-.03-.03-.05-.33-.49-.68-.95-1.13-1.33-.2-.18-.44-.32-.7-.41-.21-.07-.43-.11-.64-.04-.24.08-.44.2-.58.37-.15.16-.26.38-.32.63-.05.2-.05.4 0 .57.06.25.2.47.43.64.12.1.26.18.4.25.47.23.98.33 1.49.4.15.02.29.03.44.04.01 0 .04.02.04.03.01.1 0 .19 0 .29-.13.01-.26.03-.39.04-.4.05-.79.13-1.18.25-.29.09-.57.23-.82.42-.28.23-.44.53-.44.91 0 .48.22.85.58 1.14.07.05.15.09.23.12.29.11.57.07.85-.05.29-.12.55-.3.78-.52.37-.35.67-.75.95-1.17.02-.02.03-.03.04-.05l.24.12c.01.01.02.02.03.02v.02c-.01.01-.02.03-.02.04-.28.61-.51 1.23-.57 1.91-.03.25-.01.51.06.75.12.38.35.65.73.77.17.05.35.06.54.05.49-.04.84-.32.99-.81.12-.36.09-.73.03-1.09-.07-.39-.18-.76-.33-1.12-.07-.17-.14-.34-.22-.52.09-.05.18-.09.27-.14.06.09.12.18.18.26.29.4.59.78.97 1.1.18.16.39.29.61.38.27.11.56.17.84.05.19-.07.36-.19.5-.35.14-.16.24-.35.28-.56.13-.47.03-.88-.33-1.21Zm-11.65 0c-.14-.13-.31-.23-.48-.31-.47-.22-.97-.32-1.48-.4-.16-.02-.32-.03-.49-.05v-.26c0-.04.02-.05.05-.06l.33-.03c.4-.04.8-.12 1.18-.24.3-.09.57-.23.82-.42.29-.23.46-.53.46-.92-.01-.49-.23-.86-.6-1.15-.06-.05-.13-.08-.2-.11-.27-.1-.53-.07-.8.02-.29.11-.56.28-.79.5-.39.36-.71.79-1.01 1.23a.21.21 0 0 1-.04.06c-.05-.03-.09-.06-.13-.08l-.14-.08.03-.06c.26-.57.49-1.15.56-1.79.04-.28.02-.57-.04-.85-.09-.37-.29-.63-.64-.75a1.56 1.56 0 0 0-.64-.07c-.23.01-.45.09-.63.24s-.31.35-.37.58c-.1.36-.08.72-.02 1.07.08.41.19.8.35 1.17.07.15.13.3.2.46l-.26.15h-.01c-.01-.02-.02-.03-.03-.05-.33-.49-.68-.95-1.13-1.33-.21-.18-.45-.32-.71-.41-.21-.07-.42-.11-.63-.04-.49.14-.78.49-.9.99-.11.5.04.91.43 1.22.12.1.26.18.4.25.47.23.98.33 1.49.4.15.01.29.03.44.04.01 0 .04.02.04.03.01.1 0 .19 0 .29-.13.01-.26.03-.39.04-.4.04-.79.13-1.18.25-.29.09-.57.23-.82.42-.28.23-.45.53-.44.91 0 .48.22.85.59 1.14.07.05.14.09.22.12.29.11.57.07.86-.05.28-.12.54-.3.77-.53.37-.34.67-.74.95-1.16.02-.02.03-.04.04-.06.08.05.16.09.24.13.01.01.02.02.03.02v.01c-.01.02-.01.03-.02.05-.28.61-.51 1.23-.57 1.91-.03.25-.01.51.06.75.11.38.34.65.72.77.18.05.36.06.54.05.5-.04.84-.33 1-.81.11-.36.09-.73.03-1.1-.08-.38-.19-.75-.33-1.11a8.11 8.11 0 0 1-.22-.52l.26-.14c.06.09.12.18.18.26.29.4.6.78.97 1.1.19.16.39.29.61.38.28.11.56.17.84.05.2-.07.37-.19.5-.35.14-.16.24-.35.29-.56.13-.47.02-.88-.34-1.21Z"></path><path fill="#fff" d="M29.46 41.29c-.93 0-1.6 1.12-1.6 3.25 0 2.02.63 3.17 1.59 3.17 1.08 0 1.59-1.25 1.59-3.25 0-1.91-.49-3.17-1.58-3.17Zm0 0c-.93 0-1.6 1.12-1.6 3.25 0 2.02.63 3.17 1.59 3.17 1.08 0 1.59-1.25 1.59-3.25 0-1.91-.49-3.17-1.58-3.17ZM32.5 0C14.55 0 0 14.55 0 32.5S14.55 65 32.5 65 65 50.44 65 32.5C65 14.56 50.45 0 32.5 0Zm-4.67 14.56c.19-.33.46-.6.79-.76.24-.12.51-.17.77-.15.43.03.8.21 1.14.47l.15.1h.01v-.06c.01-.22 0-.45.01-.67.07-.88.69-1.52 1.4-1.63.36-.06.72-.03 1.06.11.44.18.72.52.89.97.09.28.14.57.14.87v.42c.03-.01.04-.02.05-.04.3-.21.61-.4.97-.49.21-.05.43-.07.64-.03.22.04.42.13.6.26.27.18.49.44.64.74.31.67.28 1.44-.27 2.04-.24.26-.53.46-.85.59-.02 0-.04.01-.05.02 0 0-.01.01-.02.01l.06.03c.25.12.48.27.7.45.61.53.77 1.25.5 1.98-.16.47-.5.85-.93 1.07-.19.1-.41.14-.63.14-.31.01-.6-.06-.87-.2-.14-.09-.27-.17-.4-.27-.05-.03-.09-.07-.14-.12v.08c0 .22 0 .44-.01.66-.05.82-.55 1.39-1.15 1.59-.42.13-.88.13-1.29-.04-.5-.18-.79-.58-.95-1.08-.07-.25-.1-.5-.1-.76v-.44c-.03.02-.05.03-.07.04-.29.21-.61.4-.97.49a1.435 1.435 0 0 1-1.3-.28c-.21-.15-.39-.35-.52-.57-.13-.23-.21-.48-.25-.74-.07-.58.09-1.07.5-1.47.22-.2.47-.37.74-.49l.14-.07a.163.163 0 0 1-.06-.03c-.3-.14-.58-.33-.81-.55-.27-.25-.44-.58-.5-.94-.07-.43.02-.88.24-1.25Zm13.04 16.26v1.2H38.1v2.46h3.01v1.2h-4.63v-8.04h4.63v1.16H38.1v2.02h2.77Zm-24.8 4.88h-1.68v-6.57L12.3 35.7h-1.65L8.4 29.13v6.57H6.85v-8.06h2.63l1.78 6.02.33-.01 1.79-6.01h2.69v8.06Zm3.14 0H17.6v-8.06h1.61v8.06Zm-.06-14.08c-.07-.25-.11-.5-.1-.76v-.44c-.03.02-.05.03-.06.04-.31.21-.62.4-.98.49a1.461 1.461 0 0 1-1.31-.28c-.21-.15-.38-.35-.51-.57-.13-.23-.22-.48-.25-.74-.08-.58.08-1.07.5-1.47.21-.2.46-.37.73-.49l.14-.07-.06-.03c-.3-.14-.57-.33-.81-.55-.26-.25-.44-.58-.5-.94-.06-.43.02-.88.25-1.25.18-.33.46-.59.79-.76.24-.12.51-.17.77-.15.43.03.8.21 1.14.47l.14.1h.02v-.06c0-.22-.01-.45.01-.67.06-.88.69-1.52 1.4-1.63.36-.06.73-.02 1.06.11.44.18.72.52.89.97.09.28.14.57.14.87v.42a.21.21 0 0 0 .06-.04c.29-.21.6-.39.96-.49.21-.05.43-.07.64-.03.22.04.42.13.6.26.27.18.49.44.64.74.31.67.28 1.44-.27 2.04-.24.26-.52.46-.85.59-.02 0-.03.01-.06.02 0 .007-.003.01-.01.01.02.02.04.03.06.03.25.12.49.27.7.45.61.53.77 1.25.51 1.98-.17.47-.5.85-.93 1.07-.2.1-.42.14-.64.14-.31.01-.6-.06-.87-.2-.14-.08-.27-.17-.4-.27-.05-.03-.08-.07-.14-.12v.08c0 .22 0 .44-.01.66-.05.82-.55 1.39-1.15 1.59-.42.14-.88.13-1.3-.04-.49-.18-.78-.58-.94-1.08Zm6.59 26.78h-4.98v-.65l.83-.8c1.99-1.9 2.89-2.91 2.9-4.08 0-.79-.38-1.52-1.55-1.52-.71 0-1.29.36-1.65.66l-.34-.75a3.46 3.46 0 0 1 2.21-.79c1.68 0 2.38 1.15 2.38 2.27 0 1.44-1.04 2.6-2.68 4.18l-.63.58v.02h3.51v.88Zm.98-19.39c-3.28-.99-4.32.38-4.48 2.89-.02 2.39 2.66 3.32 4.48 2.29v1.51c-2.99.31-6.11.11-6.11-3.77s2.37-4.95 6.11-4.29v1.37Zm2.67 19.52c-1.53 0-2.56-1.43-2.58-4.01 0-2.61 1.12-4.05 2.71-4.05 1.64 0 2.58 1.46 2.58 3.95 0 2.65-.99 4.11-2.71 4.11Zm.3-16.51v3.66h-1.65v-8.04h1.68v3.18h3.21v-3.18h1.54v8.04h-1.59v-3.66h-3.19Zm8.36 16.38h-4.98v-.65l.83-.8c1.99-1.9 2.89-2.91 2.9-4.08 0-.79-.38-1.52-1.55-1.52-.7 0-1.29.36-1.65.66l-.34-.75a3.46 3.46 0 0 1 2.21-.79c1.68 0 2.39 1.15 2.39 2.27 0 1.44-1.05 2.6-2.69 4.18l-.62.58v.02h3.5v.88Zm3.17.13c-.88 0-1.65-.28-2.03-.53l.29-.81c.3.19.99.49 1.73.49 1.35 0 1.77-.86 1.76-1.51-.01-1.09-1-1.56-2.02-1.56h-.58v-.79h.58c.77 0 1.74-.4 1.74-1.32 0-.63-.39-1.18-1.36-1.18-.63 0-1.23.28-1.56.52l-.28-.77c.41-.3 1.2-.6 2.04-.6 1.53 0 2.23.91 2.23 1.86 0 .8-.48 1.49-1.44 1.83v.03c.96.19 1.74.91 1.74 2 0 1.25-.97 2.34-2.84 2.34Zm6.28-12.85h-4.61v-8.04h1.64v6.8h2.97v1.24ZM47.23 21c-.3.01-.6-.06-.87-.2-.14-.08-.27-.17-.4-.26-.04-.04-.08-.08-.13-.12v.07c0 .22 0 .44-.01.66-.05.83-.55 1.39-1.15 1.59-.42.14-.88.13-1.3-.03-.49-.19-.78-.58-.94-1.09-.07-.24-.11-.5-.1-.76v-.44c-.03.02-.05.03-.07.04-.29.21-.61.4-.97.49-.22.06-.46.07-.68.02a1.53 1.53 0 0 1-.63-.3c-.21-.15-.38-.35-.51-.57-.13-.23-.22-.48-.25-.74-.04-.27-.02-.55.07-.81.08-.25.23-.48.43-.66.22-.2.47-.37.74-.49l.14-.07a.488.488 0 0 1-.07-.03c-.29-.14-.57-.33-.81-.55-.26-.25-.43-.58-.49-.94-.07-.43.01-.88.24-1.25.19-.33.46-.59.79-.76.24-.12.51-.17.77-.14.43.02.8.2 1.14.46.05.03.1.07.15.1h.01v-.06c0-.22-.01-.45.01-.67.06-.88.69-1.52 1.4-1.63.36-.06.72-.03 1.06.11.44.18.72.52.89.97.1.28.14.57.14.87v.42c.02-.01.04-.02.05-.04.3-.21.61-.4.97-.49.21-.05.43-.07.64-.03.22.04.42.13.6.26.27.18.49.44.63.73.32.68.29 1.45-.26 2.05-.24.26-.53.46-.85.59-.02 0-.04.01-.05.02-.01 0-.01.01-.02.01.02.02.04.02.06.03.25.12.48.27.7.45.61.53.77 1.25.5 1.98-.16.47-.5.85-.93 1.07-.2.1-.42.15-.64.14Zm2.65 14.7h-1.61v-8.06h1.61v8.06Zm6.36-.02-3.09-6v6H51.7v-8.04h1.9l2.9 5.96h.08v-5.96h1.57v8.04h-1.91Zm-26.78 5.61c-.93 0-1.6 1.12-1.6 3.25 0 2.02.63 3.17 1.59 3.17 1.08 0 1.59-1.25 1.59-3.25 0-1.91-.49-3.17-1.58-3.17Zm0 0c-.93 0-1.6 1.12-1.6 3.25 0 2.02.63 3.17 1.59 3.17 1.08 0 1.59-1.25 1.59-3.25 0-1.91-.49-3.17-1.58-3.17Zm0 0c-.93 0-1.6 1.12-1.6 3.25 0 2.02.63 3.17 1.59 3.17 1.08 0 1.59-1.25 1.59-3.25 0-1.91-.49-3.17-1.58-3.17Z"></path></svg>