<svg xmlns="http://www.w3.org/2000/svg" width="70" height="70" fill="none"><path fill="#fff" d="M29.779 29.62c-3.381.986-7.45 2.587-8.64 6.28-.5 1.97.127 3.878 1.754 5.172 1.754 1.356 4.444 1.908 6.447.986 1.126-.555 2.252-1.539 2.63-2.956l-.063-.062c-1.315.862-3.255.8-4.507-.062-1.063-.8-1.69-1.97-1.627-3.264.189-2.526 2.88-4.372 5.195-5.049.75-.186 1.564-.369 2.44-.431-.5 2.526-2.566 4.803-4.882 6.22v.125c1.439.431 3.192.124 4.57-.186.376 1.663.94 3.633 1.877 5.48.94-1.909 1.502-3.941 1.94-5.48 1.378.37 3.13.676 4.57.186v-.124c-2.252-1.356-4.38-3.695-4.882-6.221.876.062 1.69.186 2.44.431 2.253.615 4.946 2.526 5.133 5.049.063 1.355-.502 2.463-1.628 3.264-1.252.862-3.192.924-4.507.062.439 1.415 1.502 2.401 2.63 2.956 1.94.925 4.696.432 6.447-.986 1.628-1.232 2.252-3.14 1.754-5.172-1.127-3.634-5.258-5.235-8.639-6.221 5.258-.431 10.14-1.847 14.022-5.48 2.88-2.957 4.696-7.143 3.006-11.207-1.063-2.833-3.882-4.62-6.822-4.803-4.318-.432-7.951 2.647-9.765 6.159-.313.738-.564 1.415-.75 2.34 2.503-2.217 5.32-4.066 8.887-3.265 1.628.37 3.192 1.663 3.568 3.326.75 3.019-.502 5.79-2.754 7.881-3.255 2.71-7.324 3.696-11.581 4.065.126-2.216.688-4.248 2.066-5.911 1.002-1.108 2.252-1.787 3.756-1.663 1.003.124 3.005 1.846.564 4.127l.126.123c2.192-.307 4.507-2.094 5.072-4.31.75-2.708-1.754-6.22-5.447-4.927-5.321 1.909-7.137 7.512-7.45 12.625 0 .124-.438.124-.564.062-1.252-5.79 1.753-10.592 2.942-15.765C40.171 8.005 37.417 3.941 34.85 0c-2.567 3.94-5.32 7.943-4.258 12.994 1.252 5.173 4.195 9.914 2.943 15.765-.063.124-.502.124-.565-.062-.312-5.11-2.191-10.654-7.45-12.625-3.692-1.293-6.134 2.216-5.383 4.928.625 2.215 2.88 4.002 5.072 4.31l.125-.124c-2.44-2.278-.438-4.003.565-4.127 1.501-.124 2.69.493 3.756 1.663 1.378 1.663 1.94 3.695 2.066 5.911-4.258-.37-8.326-1.356-11.581-4.065-2.253-2.094-3.505-4.927-2.754-7.88.438-1.664 1.94-2.958 3.567-3.327 3.505-.8 6.447 1.108 8.889 3.264-.19-.924-.439-1.6-.751-2.34-1.628-3.509-5.321-6.649-9.516-6.22-2.88.186-5.759 1.97-6.822 4.803-1.69 4.064.126 8.253 3.006 11.207 3.882 3.695 8.825 5.049 14.022 5.542M12.412 53.996c1.285-.323 2.192-1.289 2.192-2.727 0-1.66-1.31-2.874-3.376-2.874H7.701v9.64h2.142v-4.56l2.746 4.56 2.443-.024-2.62-4.015Zm-1.184-1.512H9.843v-2.33h1.385c.68 0 1.235.421 1.235 1.09 0 .769-.479 1.24-1.235 1.24ZM16.14 58.035v-9.64h5.72v1.784h-3.553v2.255h3.326v1.785h-3.326v2.032h3.78v1.785H16.14ZM23.572 58.035v-9.64h2.142v7.856h3.502v1.785h-5.644ZM35.59 48.395h-2.066l-3.502 9.64h2.268l.78-2.428h2.974l.755 2.428h2.368l-3.577-9.64Zm-1.94 5.402.73-2.33c.127-.346.202-.768.202-.768s.101.422.202.769l.73 2.33H33.65ZM42.517 48.37h-2.141v9.64h2.141v-9.64ZM47.078 58.158c-1.36 0-2.369-.495-3.3-1.214l1.108-1.487c.58.446 1.41.843 2.217.843.982 0 1.26-.322 1.26-.892 0-.967-1.79-1.29-2.62-1.735-.983-.546-1.764-1.14-1.764-2.677 0-1.983 1.763-2.8 3.477-2.8.906 0 2.04.247 2.846.842l-.957 1.586c-.428-.297-1.159-.545-1.864-.545-1.008 0-1.336.545-1.336.942 0 .867 1.26 1.14 2.394 1.61.957.422 1.99 1.066 1.99 2.652-.025 1.81-1.335 2.875-3.451 2.875M62.345 55.16l-1.184-1.314c-.278.372-.655.768-1.059 1.165l-1.813-2.23c.932-.546 1.763-1.19 1.763-2.28 0-1.364-1.285-2.306-2.67-2.306-1.386 0-2.62.868-2.62 2.23 0 .918.453 1.414 1.007 2.083-.982.62-1.89 1.437-1.89 2.726 0 1.735 1.74 2.924 3.452 2.924.907 0 1.739-.297 2.47-.718l.453.545h2.267l-1.335-1.611a10.02 10.02 0 0 0 1.159-1.214Zm-4.888-5.552c.454 0 .806.322.806.768s-.352.793-.907 1.14c-.327-.421-.68-.842-.68-1.14 0-.371.353-.768.781-.768Zm.151 6.84c-.806 0-1.637-.52-1.637-1.363 0-.57.353-.991.831-1.388l1.965 2.38c-.378.223-.78.371-1.159.371ZM15.637 64.251h-3.426v-4.015h-2.142v9.641h2.142v-3.866h3.426v3.866h2.141v-9.64h-2.141v4.014ZM5.182 68.141c-1.814 0-2.796-1.19-2.796-3.172 0-1.76 1.083-3.073 2.746-3.073.907 0 1.637.297 2.318.966l1.209-1.387c-1.008-1.017-2.091-1.438-3.527-1.438-2.746 0-4.963 2.032-4.963 4.932C.169 68.042 2.209 70 5.182 70c1.713 0 2.797-.594 3.704-1.561L7.65 67.05c-.63.57-1.234 1.09-2.469 1.09ZM37.203 66.06h3.3v-1.784h-3.3v-2.255h3.552v-1.785h-5.694v9.641h5.896v-1.784h-3.754V66.06ZM66.023 64.623l2.62-4.387H66.25l-1.411 2.528-1.486-2.528h-2.369l2.646 4.387-3.124 5.254h2.368l1.965-3.42 2.016 3.42h2.393l-3.225-5.254ZM57.76 65.936c0 1.289-.958 2.23-2.167 2.23-1.21 0-2.015-.916-2.015-2.23v-5.725H51.41v5.725c0 2.627 1.965 4.065 4.207 4.065s4.283-1.413 4.283-4.065v-5.725H57.76v5.725ZM27.88 61.995h1.94v7.857h2.142v-7.857h1.915v-1.784H27.88v1.784ZM22.49 60.236l-3.502 9.641h2.268l.78-2.428h2.973l.756 2.428h2.368l-3.577-9.64H22.49Zm.1 5.403.757-2.33c.1-.346.201-.768.201-.768s.101.422.202.769l.73 2.33h-1.89ZM45.44 60.236l-3.502 9.641h2.268l.78-2.428h2.974l.755 2.428h2.368l-3.577-9.64H45.44Zm.126 5.403.73-2.33c.102-.346.202-.768.202-.768s.101.422.202.769c0 0 .73 2.33.756 2.33h-1.89Z"></path></svg>